<svg viewBox="0 0 578 586" className="icon">
                            <g id="Слой_1" fill="#f2b430">
                                <g>
                                    <path d="M579,26c-16.5,0-33,0-49.9,0c-29.5,114.3-58.9,228.4-88.4,342.8c-2.5,0-4.7,0-6.8,0c-110.3,0-220.7,0-331,0
			c-17.1,0-30.6,8.9-36.7,24.3c-6.3,15.7-2.4,34.6,9.5,45.7c7.7,7.2,17,9.9,27.4,9.9c109.8-0.1,219.7,0,329.5,0c2.1,0,4.2,0,6.6,0
			c0,8,0,15.5,0,23.3c-1.6,0.1-3.1,0.3-4.5,0.3c-111,0-222,0.1-333,0c-27.1,0-49-15.1-58.7-39.6c-9.9-25.2-3.9-54.2,14.9-72
			c8.2-7.8,16.1-11.7,33-16.3c-1.1-3.3-2.1-6.6-3.2-9.9C59.6,250.7,31.3,167,3.1,83.3C2.6,81.8,1.7,80.4,1,79c0-0.7,0-1.3,0-2
			c162.9,0,325.7,0,488.9,0c1.8-7.2,3.7-14.3,5.4-21.3c4.6-18.2,9.1-36.4,13.6-54.7c23.2,0,46.4,0,70,0C579,9.3,579,17.7,579,26z
			 M36.1,102.1c0.4,1.3,0.5,1.9,0.8,2.5c26.3,78.5,52.6,157.1,78.8,235.7c1.3,3.8,3.5,3.6,6.4,3.6c98.3,0,196.6,0,295,0.1
			c3.7,0,5.4-0.8,6.4-4.8c19.1-76.3,38.4-152.6,57.7-228.9c0.7-2.6,1.3-5.3,2-8.2C333.8,102.1,185.2,102.1,36.1,102.1z"/>
                                    <path d="M120,587c-2.8-0.9-5.6-1.7-8.4-2.7c-21.6-7.5-36.2-30.7-33.1-52.5c3.6-25.7,21.6-43,46.1-44.6c27.4-1.7,51.8,23,50.7,51.4
			c-0.9,23.9-16.1,42.2-39.6,47.5c-0.6,0.1-1.2,0.6-1.7,0.9C129.3,587,124.7,587,120,587z M150.4,536.7c-0.1-14-10.3-24.7-23.5-24.7
			c-12.8,0-23.9,11.8-23.8,25.3c0.1,13.8,10.5,24.7,23.6,24.7C139.7,562,150.5,550.5,150.4,536.7z"/>
                                    <path d="M386,587c-2.8-0.8-5.7-1.5-8.5-2.5c-22.6-7.5-36.8-30.9-33.3-55.1c3.4-23.5,22.5-40.9,46.2-42.2
			c18.5-1,37.1,10.6,45.6,28.5c8.6,18.1,5.6,39.6-7.7,54.5c-7.3,8.2-16.2,13.6-27.1,15.8c-0.8,0.2-1.5,0.6-2.2,0.9
			C394.7,587,390.3,587,386,587z M368.7,537.2c0,14,10.1,24.7,23.2,24.8c12.9,0.1,24-11.4,24-25c0-13.3-10.9-24.9-23.5-25
			C379.6,511.9,368.7,523.5,368.7,537.2z"/>
                                    <path d="M183.7,301.1c-8.1,0-16,0-24.2,0c0-46.7,0-93.2,0-140.1c8,0,15.9,0,24.2,0C183.7,207.5,183.7,254.1,183.7,301.1z" />
                                    <path d="M272.5,301c-8.3,0-16.2,0-24.3,0c0-46.8,0-93.4,0-140.2c8.2,0,16.1,0,24.3,0C272.5,207.6,272.5,254,272.5,301z" />
                                    <path d="M360.7,301.1c-8.1,0-16,0-24.3,0c0-46.8,0-93.3,0-140.2c8.1,0,16,0,24.3,0C360.7,207.4,360.7,253.9,360.7,301.1z" />
                                </g>
                            </g>
                            <g id="Слой_2">
                            </g>
                        </svg>