<svg viewBox="0 0 400 333" className="icon">
                                    <g>
                                        <path d="M167,1c3.5,4.3,2.6,8.1-0.4,12.6c-6,8.8-12,17.6-16.8,27.1c-6.9,13.9-4.9,21.1,6.2,32c6.5,6.4,12.8,13.1,18.3,20.4
		c3.2,4.3,4.9,9.8,6.2,15.1c0.9,3.8,2.3,5,5.9,4.6c2.1-0.2,4.2,0,7.4,0c-1.8-4.6-3.4-8.3-4.8-12.1c-4.2-11-9.3-21.8-12.2-33.1
		c-3.2-12.6,0.1-25.1,5.4-36.9c1.8-4,5.5-5.3,9.1-3.7c3.7,1.6,5.1,5.2,3.3,9.7c-3.4,8.3-6.1,16.8-4.5,25.7
		c1.1,6.6,3.3,13.2,5.7,19.5c3.6,9.5,7.7,18.8,11.7,28c0.5,1.2,2.1,2.7,3.3,2.7c8,0.2,15.9,0.1,24.2,0.1c-0.7-7.7-3.8-13.8-8.7-19
		c-3.7-3.9-7.6-7.5-11.4-11.2c-9.2-9.2-12.2-20.3-6.9-32c5.1-11.3,12-21.8,18.5-32.3c2.3-3.7,6.6-4,9.6-1.4c3.3,2.8,3.5,6.2,1.1,9.8
		c-3.4,5.1-7.1,10.1-10.3,15.3c-2.2,3.7-4.1,7.6-5.8,11.6c-3.3,7.8-1.8,14.6,4.4,20.4c0.4,0.3,0.7,0.7,1.1,1.1
		c11.6,10.1,21.1,21.4,22.5,37.9c5.7,0,11,0,16.3,0c19,0,38,0.1,57-0.1c5.2-0.1,8.2,1.9,10.5,6.5c21.7,43.8,43.5,87.6,65.4,131.3
		c0.8,1.6,1.9,3,2.9,4.5c0,26.3,0,52.6,0,79c-133.3,0-266.7,0-400,0c0-26.3,0-52.7,0-79c1-1.5,2.1-2.9,2.8-4.5
		c21.7-43.4,43.5-86.8,64.9-130.4c2.8-5.7,6.3-7.6,12.4-7.5c26.8,0.3,53.6,0.1,80.4,0.1c1.8,0,3.5,0,5.7,0c-0.4-1.9-0.3-3.1-0.8-4
		c-4-6.4-7.8-13.1-12.5-19c-4.2-5.3-9.8-9.5-14.2-14.6c-6.6-7.6-8.9-16.5-6.9-26.5c2.3-11.2,7.7-20.9,13.6-30.3
		c3.7-5.9,7.7-11.5,11.6-17.3C161,1,164,1,167,1z M168.4,126.9c-1.5-0.1-2.3-0.3-3.1-0.3c-26.8,0-53.7,0.1-80.5-0.1
		c-3.4,0-4.6,1.7-5.8,4.2c-19.2,38.6-38.4,77.1-57.7,115.7c-0.6,1.3-1.1,2.7-1.9,4.4c121.2,0,241.9,0,362.9,0
		c-0.4-1.1-0.7-2.1-1.1-2.9c-19.6-39.3-39.2-78.6-58.7-118c-1.4-2.7-3.1-3.4-5.9-3.3c-21.2,0.1-42.3,0.1-63.5,0
		c-3.7,0-4.4,1.5-5.4,4.7c-4.1,13.8-8.6,27.6-13.3,41.2c-1.3,3.9-4.7,5.6-8.9,4c-3.8-1.4-5.2-5.2-3.6-9.5c1.3-3.6,3.2-7,4.4-10.6
		c3.1-9.5,6-19.1,9.2-29.3c-9.2,0-16.9,0-24.9,0c0,1.5,0.1,2.7,0,3.8c-1.5,10.3-2.9,20.7-4.8,30.9c-0.7,3.9-4,5.9-7.9,5
		c-4.2-1-5.9-4.1-5.2-8.3c0.4-2.1,1.1-4.2,1.6-6.3c2-8.2,3.4-16.5,2.1-25.1c-4.9,0-9.5,0-14.2,0c-1.6,21.6-8.5,41.3-17,60.6
		c-2.2,5-5.8,6.7-9.8,4.9c-3.8-1.8-4.8-5.4-2.8-10.3c2.3-5.7,4.8-11.3,6.9-17.1C163.9,152.8,167.9,140.5,168.4,126.9z M248.9,265.2
		c-0.4,1.7-0.7,3-1,4.2c-5.5,21.7-24.4,36.7-46.5,36.8c-22.1,0.1-41.5-14.6-46.9-36.2c-1-4.1-2.4-5.2-6.5-5.2
		c-42.5,0.2-85,0.1-127.5,0.1c-1.8,0-3.5,0-5.3,0c0,18.7,0,36.8,0,54.9c124.1,0,247.8,0,371.7,0c0-18.3,0-36.4,0-54.7
		C340.8,265.2,295,265.2,248.9,265.2z M234.2,265.2c-22.1,0-44.2,0-66.3,0c1.2,14.5,16.5,27.1,32.8,27.3
		C217.2,292.6,232.4,280.3,234.2,265.2z"/>
                                        <path d="M261.9,225.8c-2.3-4.3-4.2-8.1-6.4-12.2c21.4-11.4,42.5-22.7,63.8-34.1c2.3,4.2,4.3,8,6.5,12.2
		C304.6,203,283.6,214.2,261.9,225.8z"/>
                                        <path d="M273.8,239.5c-2.1-4.2-4-8-6.2-12.3c13.3-6.7,26.5-13.3,39.9-20c2.1,4.3,4,8.1,6.1,12.3
		C300.3,226.2,287.3,232.8,273.8,239.5z"/>
                                    </g>
                                </svg>