<svg viewBox="0 0 400 418" className="icon">
                                    <g>
                                        <path d="M188,419c-12.1-7.5-15.3-18.8-14.9-32.5c0.6-18.1,0.2-36.3,0.2-55.5c-5.6,2.4-10.5,4.5-15.4,6.7
		c-4.7,2.1-11.2,3.1-13.5,6.8c-2.4,3.9-0.9,10.3-1,15.5c-0.1,4.5,0.1,9-0.2,13.5c-0.8,14.3-12.1,24.9-26.2,24.9
		c-14.2-0.1-25.6-11.4-26-25.7c0-1.7,0-3.3,0-5.7c-2.2,0.9-3.9,1.5-5.7,2.3c-23.5,10.2-47,20.5-70.4,30.8c-3.8,1.7-7.6,3.1-11-0.5
		c-3.4-3.5-2.1-7.3-0.4-11.1C58.1,262.2,112.8,136,167.4,9.7c3.6-8.3,6.3-9.5,14.7-6c24.4,10.2,45.8,25.2,66.1,41.7
		c46.6,37.7,88.6,79.9,123.3,128.9c10.3,14.6,18.4,30.8,26.8,46.6c4.1,7.7,2.2,10.9-5.7,14.3c-54,23.6-107.9,47.2-162,70.6
		c-3.9,1.7-5,3.7-4.9,7.8c0.2,24.5-0.3,49,0.2,73.5c0.3,13.5-3,24.5-15,31.9C203.3,419,195.7,419,188,419z M23.6,379.8
		c2.9-1.2,4.4-1.8,5.9-2.5c21.3-9.3,42.7-18.6,64-27.9c7.7-3.3,12.3-0.2,12.4,8.2c0,4.3,0,8.7,0,13c0.1,7.9,4.5,12.9,11.5,12.8
		c6.6-0.1,10.8-5,10.9-12.8c0.1-9.7,0.1-19.3,0-29c-0.1-5.2,2-8.4,6.8-10.4c13.5-5.7,26.9-11.6,40.3-17.4c8.4-3.7,12.8-0.8,12.8,8.3
		c0,23,0,46,0,69c0,1.8,0,3.7,0.3,5.5c1,5.5,5.4,9.3,10.7,9.5c5.5,0.2,10.2-3.6,11.3-9.3c0.4-1.9,0.3-4,0.3-6
		c0-28.2,0.1-56.3-0.1-84.5c-0.1-5.9,2.2-9,7.5-11.3c37.4-16.1,74.7-32.5,112.1-48.8c1.6-0.7,3.1-1.5,3.7-1.8
		c-6.2-10.8-12.3-21.1-18-31.6c-5.8-10.8-11.2-21.9-16.6-33c-9.3-18.8-24.1-30.6-44.9-33.4c-17.3-2.3-28.6-11.4-35.5-26.9
		c-1.5-3.3-3.2-6.7-5.3-9.6c-5.5-7.7-10.8-15.7-17.3-22.5c-9.1-9.7-20.6-15-34.1-15.5c-4.1-0.2-6,1.2-7.7,5
		c-38.1,88.3-76.3,176.5-114.5,264.7C34.8,353.9,29.5,366.2,23.6,379.8z M179.7,19.1c-5.5,12.6-10.8,24.9-16.1,37.3
		c31.8,6.8,45.6,16.7,62.3,44.6c2.5,4.1,5,8.3,7,12.7c4.6,10.2,11.8,15.9,23.3,17.7c18.4,2.9,34.9,10.3,46.4,25.8
		c4.6,6.3,8.7,13,12.4,19.9c7.5,14.1,14.3,28.6,21.9,42.6c2.9,5.4,7,10.1,10.9,14.8c0.9,1.1,3.4,2.2,4.6,1.8
		c10.3-4.2,20.4-8.8,30.6-13.2C357.5,162.1,244.1,47,179.7,19.1z"/>
                                        <path d="M300.5,215c-0.4,22.9-19,41.1-41.8,40.8c-22.4-0.3-41.1-19.7-40.6-42.2c0.5-22.8,19.6-41.1,42.1-40.6
		C282.7,173.6,301,192.6,300.5,215z M259.3,240.8c14.4,0,26.4-12.2,26.3-26.6c-0.2-14.3-11.9-26.1-26.2-26.2
		c-14.3-0.1-26.4,12.2-26.3,26.5C233.3,228.9,245.2,240.8,259.3,240.8z"/>
                                        <path d="M203.1,195.8c0.1,20.7-16.5,37.3-37.4,37.3c-20.3,0-37.2-16.7-37.3-37.1c-0.1-20.7,16.7-37.9,37.1-37.9
		C186.4,158,203.1,174.7,203.1,195.8z M188.2,195.5c0-12.5-10.3-22.6-22.6-22.4c-12.1,0.2-22.1,10.2-22.2,22.4
		c-0.1,12.4,10,22.6,22.5,22.6C178.4,218.1,188.2,208.1,188.2,195.5z"/>
                                        <path d="M113.5,255.9c16.6,0,29.8,13.2,29.8,29.8c0,16.7-13.5,30.4-30.1,30.2c-16.4-0.2-29.6-13.7-29.6-30.2
		C83.6,269.2,96.9,255.9,113.5,255.9z M113.2,270.9c-8.2,0.1-14.7,6.7-14.7,15c0.1,8.2,6.7,14.9,14.9,15c8.3,0,15-6.9,14.9-15.4
		C128.2,277.2,121.6,270.8,113.2,270.9z"/>
                                    </g>
                                </svg>