<svg viewBox="0 0 800 734" className="icon">
                                    <g>
                                        <path d="M416,735c-8.7-1-17.5-1.8-26.2-2.9c-73.8-9.3-138.9-38.2-194.9-87c-59.9-52.3-99.2-117.3-117.3-194.8
		c-6-25.6-8.7-51.5-9.3-77.7c0-2.3,0-4.6,0-8.1c-1.9,1.7-3.1,2.6-4.2,3.7c-9.4,9.4-18.8,18.9-28.3,28.2c-6.4,6.3-15,7.6-22.6,3.9
		c-7.3-3.5-12.2-11-10.9-19.1c0.7-4.5,2.7-9.6,5.8-12.7c21.6-22.2,43.6-44,65.6-65.9c8.7-8.6,20.2-8.5,28.9,0.2
		c21.8,21.8,43.6,43.6,65.3,65.5c8.2,8.3,8.2,20.4,0.3,28.2c-7.9,7.7-20,7.7-28.3-0.3c-9.2-8.9-18.2-18.1-27.2-27.2
		c-1.3-1.3-2.3-2.8-3.4-4.2c-0.4,0.2-0.7,0.4-1.1,0.7c0,7.5-0.5,15.1,0.1,22.6c9.5,114.6,63.2,202.5,161.3,262.3
		c59.2,36.1,124.4,50,193.5,44c144.7-12.7,263.6-118.4,292.7-259.8C788.2,277.1,701.4,118.9,551.4,62
		c-120.9-45.8-256.1-16.8-347.9,74.4c-3.7,3.7-8.7,7-13.7,8.4c-8.4,2.3-16.6-2.2-20.6-9.6c-4.2-7.7-3.1-16.8,3.4-23.5
		c15.3-15.9,32-30.2,50-42.9C277.2,29.9,338,8,404.6,2.2c3.8-0.3,7.6-0.8,11.4-1.2c12.7,0,25.3,0,38,0c1.5,0.3,2.9,0.7,4.4,0.8
		C488.3,3.5,517.5,9.1,546,18C675,58.6,772.6,169.6,796.1,302.5c1.9,10.8,3.3,21.7,4.9,32.5c0,22,0,44,0,66
		c-0.3,1.6-0.7,3.2-0.9,4.8c-1.8,12-3,24.1-5.5,36c-16.2,78.1-53.8,144.1-112.7,197.8c-57.2,52.1-124.4,82.9-201.2,92.5
		c-8.5,1.1-17.1,1.9-25.7,2.9C442,735,429,735,416,735z"/>
                                        <path d="M291.8,490.8c-0.1-5.9,2.4-10.6,6.5-14.6c10.2-10.1,20.3-20.3,30.4-30.4c69.9-69.9,139.8-139.7,209.6-209.6
		c6.1-6.1,12.9-8.9,21.2-6.7c13.4,3.6,18.7,19.8,10.1,31c-1,1.3-2.2,2.5-3.4,3.7c-79.6,79.7-159.3,159.3-238.9,239
		c-5.6,5.7-11.9,9-20.2,7.1C297.9,508.1,291.7,500.4,291.8,490.8z"/>
                                        <path d="M343.9,358.4c-39.2-0.2-71-32.2-70.6-71.1c0.4-39.3,32-70.5,71.3-70.3c39.1,0.2,70.5,32.1,70.3,71.4
		C414.8,327.1,382.9,358.6,343.9,358.4z M375.2,287.6c-0.1-17.4-13.7-31-31.1-31c-17.3,0.1-31,13.8-31,31.2
		c0,17.1,14.1,31.1,31.2,31.1C361.5,318.8,375.3,304.9,375.2,287.6z"/>
                                        <path d="M526.4,518.4c-39.3-0.2-70.6-31.7-70.4-71.1c0.2-39.1,32.1-70.6,71.3-70.3c38.8,0.3,70,32,69.8,71.2
		C597,487.3,565.4,518.6,526.4,518.4z M526.5,416.8c-17.3,0-31.2,13.9-31.1,31.1c0.1,17.2,14.1,31,31.3,31
		c17.2,0,31.2-14.1,31.1-31.2C557.8,430.6,543.8,416.8,526.5,416.8z"/>
                                    </g>
                                </svg>