<svg viewBox="0 0 797 800" className="icon">
                            <g fill="#efa735">
                                <path d="M602,801c-8.7-1.2-17.5-2.2-26.2-3.5c-40.1-6.3-78-19.8-114.7-36.6C350.3,710,255.3,638.1,175.4,546.1
		c-48.7-56-91.4-116.2-123.6-183.4c-18.4-38.3-34.2-77.6-43.1-119.4c-6-28.2-8.4-56.7-3.7-85.3c4.2-25.7,15.6-48,33.8-66.6
		C59.9,69.5,81.5,48,103.3,26.6c13.5-13.2,29.4-22.2,48.5-24.9c0.4-0.1,0.8-0.5,1.2-0.7c6,0,12,0,18,0c3.4,0.8,6.7,1.5,10.1,2.4
		c13.8,3.7,26.1,10.3,36.2,20.3c35.9,35.5,71.6,71.2,107.1,107.1c12.2,12.3,20.1,27.4,22.6,44.7c3.6,24.5-4.4,45.8-20.7,63.3
		c-19.6,21.1-40.5,41-60.9,61.4c-1.4,1.4-2.9,2.7-4.4,4.2c7.3,17.4,16.5,33.6,27.1,48.9c47.1,67.2,104.2,124.1,173.5,168.5
		c10.2,6.5,21.4,11.4,32,17.4c3.1,1.7,4.2-0.4,5.8-1.9c18.6-18.6,37.2-37.2,55.9-55.8c12.6-12.6,27.2-22.1,45-25.4
		c26.7-5,49.7,3.1,68.6,21.6c35.7,35,70.9,70.5,106.1,106c11,11.1,18.6,24.3,22.2,39.6c0.1,0.6,0.6,1.1,0.9,1.7c0,10.3,0,20.7,0,31
		c-4.3,13.9-10,27.1-19.9,38c-6.5,7.3-13.5,14.2-20.4,21.2c-13.1,13.4-26.7,26.5-39.4,40.3c-17.7,19.4-38.4,33.7-64,40.4
		c-8.6,2.2-17.6,3.4-26.4,5.1C619.3,801,610.7,801,602,801z M612,760.9c31.3,0.2,55.1-9.3,74.4-29.9c13-13.8,26.5-27.2,39.6-40.9
		c8.2-8.5,16.9-16.7,24.1-26c10.3-13.3,11.6-28.1,2.4-42.8c-2.6-4.2-5.9-8.1-9.4-11.6c-33.4-33.5-66.9-67-100.4-100.4
		c-2.9-2.9-6.2-5.6-9.7-7.9c-11.4-7.2-23.3-7.9-35-1.2c-5.2,2.9-10,6.7-14.2,10.8c-20.7,20.3-41,41-61.6,61.4
		c-11.8,11.7-25.3,14.7-39.2,7.6c-15.1-7.7-30.4-15.3-44.7-24.4c-58-36.6-107.4-83-151.2-135.6c-25.3-30.5-47.9-62.8-63.7-99.3
		c-8.6-19.7-5.4-31.6,10.1-46.4c20.6-19.6,41-39.6,60.7-60.1c17.2-17.9,16.8-37.1,0.1-55.5c-0.3-0.4-0.7-0.7-1-1.1
		C259,123.3,224.9,88.8,190.3,54.7c-18.1-17.8-39.6-17.6-58,0.4c-21.8,21.3-43.3,43-64.7,64.7c-12.3,12.6-20,27.7-22.8,45.2
		c-4.2,25.6-1.2,50.9,4.8,75.8c10.8,45.1,28.8,87.6,51,128.1c53.7,97.9,123.9,182.2,210.8,252.3c62.5,50.4,130.8,91,206.2,119.3
		C549.1,752.3,581.6,759.9,612,760.9z"/>
                            </g>
                        </svg>
